<svg xmlns="http://www.w3.org/2000/svg" viewBox="0 0 3000 3000" width="3000" height="3000"><g transform="translate(1595.0 126.0) rotate(0.0 382.0 314.5) scale(0.9987032544131181 0.9989327777001359)"><svg width="764.992" height="629.672" viewBox="0 0 764.992 629.672"><rect fill="#dedede" height="615.672" rx="10.096" width="750.992" x="7" y="7"/><path d="M747.9 629.672H17.1A17.115 17.115 0 0 1 0 612.576V17.1A17.115 17.115 0 0 1 17.1 0h730.8A17.116 17.116 0 0 1 765 17.1v595.48a17.116 17.116 0 0 1-17.1 17.092zM17.1 14a3.1 3.1 0 0 0-3.1 3.1v595.48a3.1 3.1 0 0 0 3.1 3.1h730.8a3.1 3.1 0 0 0 3.1-3.1V17.1a3.1 3.1 0 0 0-3.1-3.1z" fill="#aaaaab"/><path d="M31.278 32.077h701.871V394.99H31.278z" fill="#fff"/><path d="M31.278 336.301h701.871v58.689H31.278z" fill="#ff504c"/><path d="M688.218 359.058h-299.1v15.57h299.1a7.785 7.785 0 1 0 0-15.57z" fill="#ababa8"/><circle cx="389.116" cy="365.715" fill="#fffffc" r="20.901"/><path d="M90.014 359.058h299.1v15.57h-299.1a7.785 7.785 0 1 1 0-15.57z" fill="#fff"/><path d="M368.215 122.286v126.553a9.571 9.571 0 0 0 15.064 7.838l90.294-63.277a9.572 9.572 0 0 0 0-15.676l-90.294-63.277a9.571 9.571 0 0 0-15.064 7.839z" fill="#ff514c"/><path d="M648.567 433.97h57.188v181.27h-57.188z" fill="#ff403a"/><path d="M564.824 465.546h57.188v149.695h-57.188z" fill="#ff504c"/><g fill="#ff6a64"><path d="M479.812 488.62H537v126.62h-57.188zm-86.226 19.432h57.188v107.189h-57.188zm-86.226 24.289h57.188v82.9H307.36zm-86.226 23.44h57.188v59.46h-57.188zm-75.903 23.591h57.188v35.869h-57.188zm-86.226 23.781h57.188v12.087H59.005z"/></g><path d="M571.53 408.763a12.928 12.928 0 0 0-12.93 12.928c0 .419.024.834.063 1.243L426.33 460.9a12.909 12.909 0 0 0-24.847 6.322L266.272 496.87a12.913 12.913 0 0 0-24.756 6.976L111.749 551.5a12.96 12.96 0 1 0 1.3 3.612l129.7-47.625a12.924 12.924 0 0 0 24.4-5.946c0-.319-.026-.632-.048-.945L402.513 470.9a12.923 12.923 0 0 0 24.715-5.292c0-.329-.025-.651-.049-.974l132.411-37.987a12.928 12.928 0 1 0 11.94-17.884z" fill="#fff"/></svg></g><g transform="translate(898.0 208.0) rotate(0.0 461.5 303.5) scale(0.9946506545512541 0.9965441098004448)"><svg width="927.964" height="609.105" viewBox="0 0 927.964 609.105"><path d="M6 6h915.964v597.105H6z" fill="#fff"/><path d="M927.964 609.105H0V0h927.964zM12 597.105h903.964V12H12z" fill="#83a1d5"/><path d="M12.358 11.427h904.381v59.955H12.358z" fill="#9ec9ff"/><path d="M633.113 71.381h283.626v525.656H633.113z" fill="#d8d8dc"/><path d="M649.413 87.747H900.44v257.35H649.413zm0 273.649H900.44v48.145H649.413zm-16.3 64.446h283.626v13.65H633.113z" fill="#ababab"/><path d="M662.568 464.077h58.331v58.331h-58.331z" fill="#c8eefc"/><path d="M720.954 464.077h58.331v58.331h-58.331z" fill="#9ec9ff"/><path d="M778.109 464.077h58.331v58.331h-58.331z" fill="#8ab6f8"/><path d="M836.495 464.077h58.331v58.331h-58.331z" fill="#83a1d7"/><path d="M662.624 522.407h58.331v58.331h-58.331z" fill="#bcecff"/><path d="M721.01 522.407h58.331v58.331H721.01z" fill="#007aa3"/><path d="M778.164 522.407h58.331v58.331h-58.331z" fill="#004970"/><path d="M836.551 522.407h58.331v58.331h-58.331z" fill="#00072e"/><g fill="#fff"><path d="M767.841 56.7h35.593v5h-35.593zm88.634 5h-40.592V21.108h40.592zm-35.592-5h30.592V26.108h-30.592zm46.806-31.524 3.885-3.147 28.83 35.593-3.885 3.147z"/><path d="M867.692 57.626 896.52 22.03l3.885 3.146-28.827 35.595z"/></g><path d="m536.04 511.458-126.935-388.28L90.204 408.332z" fill="#bcecff"/><circle cx="251.208" cy="239.578" fill="#83a1d7" opacity=".61" r="102.306"/><path d="M256.5 379.951a161.426 161.426 0 0 1-74.152-17.664c-29.133-15.131-51.5-38.989-62.994-67.177-22.149-54.341 2.342-105.6 10.376-120.013l15.723 8.763c-5.016 9-29.044 56.335-9.43 104.456 20.677 50.731 80.488 81.039 142.217 72.065l2.59 17.812a169.146 169.146 0 0 1-24.33 1.758z" fill="#007ba4"/><path d="m275.407 482.277 260.633 62.965" fill="#8ab6f8"/><path d="m273.293 491.023 4.227-17.497 260.633 62.962-4.227 17.497z" fill="#83a1d4"/></svg></g><g transform="translate(1997.0 1404.0) rotate(0.0 -327.0 546.5) scale(-0.7236530537273664 0.7238108608713676)"><svg width="903.748" height="1510.063" viewBox="0 0 903.748 1510.063"><path d="m188.734 854.927 14.095-12.392 285.405 324.609-14.094 12.392z"/><path d="m447.01 868.702 12.76 13.762-337.054 312.51-12.76-13.763z"/><path d="m450.862 879.401 14.716-11.647L706.13 1171.68l-14.716 11.648z"/><path d="m641.85 842.067 16.758 8.45-176.046 349.157-16.758-8.45z"/><path d="M74.632 1475.236c-2.977 4.877-15.975 2.867-17.998-3.009s124.214-762.595 124.214-762.595l44.223 8.329c-.001.001-147.462 752.399-150.439 757.275z" fill="#c09b72"/><path d="M289.095 1506.821c-2.621 5.061-15.729 3.978-18.167-1.723s69.449-767.286 69.449-767.286l44.703 5.165s-93.364 758.783-95.985 763.844z" fill="#f2c18c"/><path d="M516.67 1500.954c-1.619 5.403-14.694 6.82-18.164 1.748s-76.595-757.456-76.595-757.456l44.871-3.404c0 .001 51.506 753.709 49.888 759.112z" fill="#ac8862"/><path d="M757.138 1471.867c-1.247 5.478-14.195 7.789-18.001 2.99-3.806-4.798-127.969-747.022-127.969-747.022l44.531-6.479c-.001 0 102.686 745.033 101.439 750.511z" fill="#dbb388"/><path d="M871.276 708.059c40-21 37-49 23-63-22-22-99-33-162-38-109.593-8.698-152.828-43.314-183-76-60-65-48-132-99-290-14.331-44.398-94.177-190.477-238-230-66.23-18.2-166.107-18.406-201 34-17.073 25.642-11.642 53.447-4 102 36.831 234.017 39 240 48 362 7.819 105.992 41.172 154.012 64 180 85.175 96.967 239.017 88.297 404 79 86.147-4.855 292.948-31.098 348-60z" fill="#ddd"/><path d="M896.276 673.059c0 28.995-187.462 59-378 59s-345-30.505-345-59.5 152.554-51.572 343-57.5c257-8 380 29.005 380 58z" fill="#f5f5f5"/><path d="M54.276 495.059s52.116 132.91 209 179c354 104 639 2 639 2s-.129 17.51-42 38c-47 23-460 95-639 40-172.406-52.974-167-259-167-259z" fill="#bdbcbc"/></svg></g><g transform="translate(1248.0 1029.0) rotate(0.0 334.0 797.0) scale(0.8985028091663428 0.899154264749599)"><svg width="743.459" height="1772.777" viewBox="0 0 743.459 1772.777"><linearGradient id="a" gradientTransform="matrix(-.394 .919 .919 .394 -11455.803 -11211.42)" gradientUnits="userSpaceOnUse" x1="5754.987" x2="5800.884" y1="15490.605" y2="15490.605"><stop offset=".354" stop-color="#7b3939"/><stop offset=".994" stop-color="#744747"/></linearGradient><linearGradient xmlns:xlink="http://www.w3.org/1999/xlink" id="b" gradientTransform="matrix(-1 -.017 -.017 1 -3110.726 -46.778)" x1="-3530.126" x2="-3500.581" xlink:href="#a" y1="183.783" y2="183.783"/><path d="m525.443 237.079-2.221 79.575c-18.528.8-37.431 2.339-55.959 3.137-1.257-18.061 1.257-34.223 0-52.284 27.674-6.167 31.794-4.477 58.18-30.428z" fill="#744747"/><path d="m525.368 241.437-1.445 28.715c-35.773 34.931-57.27 26.965-57.27 26.965l.177-35.834c22.9-1.083 41.585-5.583 58.538-19.846z" fill="#633b3b"/><path d="M582.884 133.976c24.379.42 31.922 35.523 5.581 53.776-8.18 5.668-22.178 12.631-30.281 10.865-2.607 9.715-6.966 26.72-34.134 45.772-5.76 4.039-31.262 20.608-63.016 24.024-5.707.614-34.024-2.515-55.695-26.069-31.936-34.709-15.345-84.537-14.235-87.835-2.92-7.078-11.6-28.449-.767-58.434 21.349-48.806 67.3-56.976 83.535-55.069 6.145.721 58.151 6.738 79.4 50.938 15.529 32.3 10.651 51.358 11.571 50.668 7.415-5.566 11.536-8.748 18.041-8.636z" fill="#744747"/><path d="M453.983 187.237c1.022-4.664-16.112-14.274-22.425-9.774a7.05 7.05 0 0 0-2.614 6.835c.751 3.329 4.54 4.812 6.295 5.5 7.474 2.927 18.005.813 18.744-2.561zM555.744 151.4c-78.785-6.237-96.058-89.494-96.058-89.494-21.1 44.37-74.323 56.129-74.323 56.129s.6-34.626 32.926-59.765c14.955-11.629 36.95-22.645 73.051-15.988 34.53 6.368 120.229 64.193 84.983 94.832-8.256 7.18-11.265 15.025-20.579 14.286zm-131.882 56.8c29-.689 64.71-6.685 64.71-6.685s-24.282-3.2-46.1-.315c-12.188 1.615-22.872 7.105-18.61 7z" fill="#633b3b"/><path d="M453.526 122.357c-1.918 1.54-3.47 6.966 4.946 5.582 38.108-6.267 59.84-3.806 55.08-6.608-10.297-6.063-48.36-8.341-60.026 1.026zm-31.789 10.005c1.517 1.15 3.467 5.868-2.26 5.69-25.926-.8-39.668 4.2-37.049 1.055 5.664-6.807 30.085-13.742 39.309-6.745z"/><ellipse cx="510.986" cy="196.443" fill="url(#a)" opacity=".61" rx="22.638" ry="23.004" transform="matrix(.01722555 -.99985163 .99985163 .01722555 305.773 703.971)"/><path d="M386.823 181.126a94.145 94.145 0 0 0-.261 17.159 105.173 105.173 0 0 0 2.745 16.242s7.364 3.611 14.679.71a18.757 18.757 0 0 0 6.837-4.844c6.9-7.808 6.541-20.329-1.3-27.427-9.656-8.741-22.7-1.84-22.7-1.84z" fill="url(#b)" opacity=".61"/><path d="M591.714 63.609c52.963 41.578 48.16 89.02 31.137 130.038 0 0 24.278-51.114 19.6-75.709-5.778-30.422-50.737-54.329-50.737-54.329z"/><path d="M423.862 208.2s10.671 16.317 24.593 18.551a34.892 34.892 0 0 0 12.409-.295c16.059-3.311 26.826-24.8 26.826-24.8z" fill="#fff"/><circle cx="412.744" cy="160.365" fill="#020202" r="8.915"/><circle cx="477.228" cy="151.45" fill="#020202" r="8.915"/><path d="M231.685 260.242c-6.555-8.2-24.949-33.47-21.145-64.765 5.139-42.283 46.426-82.306 107.158-82.741 36.91-65.244 58.47-89.273 120.735-91.861 81.3-68.953 214.23 45.36 189.628 161.417 65.727-14.728 111.039 38.622 71.076 115.608 86.565 55.455 23.841 118.305-.291 111.758-19.263-60.428-176.3-127.592-176.107-119.546-.483-20.444.5-45.158.5-45.158s28.736-24.475 33.458-49.888c62.664-2.174 55.484-85.391 8.55-52.04-43.949 1.683-88.058-14.638-118.112-89.919-12.207 30.83-25.873 42.795-52.806 49.563-16.724 26.552 2.788 51.6 1.967 56.41-18.454 108.2 71.166 108.457 71.166 108.457l.622 30.363c-14.548.291-51.663 29.886-74.727 63.878-9.265 13.655-18.853 33.943-24.562 52.362-9.442 30.465-17.605 91.707-20.62 153.126-126.06 53.677-258.658-78.053-164.854-168.48-.005-.001-59.021-100.886 48.364-138.544z"/><path d="m420.234 1455.067 45.571-47.541L437.6 1373.2c-4.222 11.524-36.69 36.835-53.086 45.915z" fill="#d2d2d2"/><path d="M457.965 1370.481c4.98 1.956 6.379 14.363 6.379 14.363l88.626 54.41s30.02-.827 37.374 26.888c5.7 21.467-20.257 67.5-38.536 105.934-5.685 11.955-7.331 43.718-18.734 84.829-11.975 43.168-156.626 77.384-187.734 44.258-1.453-1.548-7.769-16.512-6.8-40.238 1.021-25.028 57.735-43.273 77.585-72.256 10.331-15.083 20.076-27.73 16.749-48.124-9.894-60.657-59.674-90.435-53.093-106.48.745-1.817 5.375-6.643 12.19-8.171 16.93-3.8 46.9 1.6 46.9 1.6s-7.43-40.259 9.288-53.708c1.714-1.378 6.056-4.779 9.806-3.305z" fill="#034a6e"/><path d="M464.344 1384.844c-.9 2.247 30.9 23.853 55.531 41.947 4.593 3.373 7.856 23.575 11.411 19.31 2.19-2.627-1.644-7.458-.076-9.8 2.8-4.174 21.746 3 21.759 2.951-.051-.079-87.29-57.739-88.625-54.408zm-84.564 49.221a49.352 49.352 0 0 1 17.1-4.645c44.949-3.335 89.1 40.936 92.737 36.662 2.341-2.753-11.645-21.361-34.549-31.954-60.605-28.028-75.411-.008-75.288-.063z" fill="#001030"/><path d="M527.169 1649.479c10.77-41.282 12.379-75.466 18.064-87.42 14.143-29.739 35.585-65.421 40.7-89.358.59-2.854-5.235-18.386-6.064-15.981 0 0-12.663 35.766-45.155 91.085-24.375 41.5-6.876 85.952-36.047 105.64C416.015 1709.23 347.5 1676.2 347.5 1676.2c1.082 4.045 2.337 13.931 4.091 18.715 30.909 24.74 164.795-4.104 175.578-45.436z" fill="#a8a8a8"/><path d="M389.665 1624.193c8.291-3.879 68.385 21.518 62.466 30.729s-43.336 25.395-76.661 20.283c-16.487-2.529-28.127-10.362-26.492-18.443 3.03-14.982 29.04-27.12 40.687-32.569zm24.362-133.367c8.489 1.306 6.279.413 16.181-3.662.877-.187 4.846 2.582 4.615 10.339-1.191 3.521-8.369 14.44-7.6 12.238-1.88 5.362 8.825 1.087 17.516-3.515 2.7-.718 6.456 3.943 6.144 5.816-1.159 6-6.012 15.871-17.178 16.459 11.146 3.362 26.891-6.879 28.959-6.542s2.78 3.583 2.78 3.583c-.562 4.894-23.907 21.257-28.691 19.231-1.441-.611 29.936.913 29.936.913 2.035.676 3.329 5.033.46 6.294-2.223 1.141-29.12 8.4-29.766 7.906-.933-.708 33.423 2.12 33.423 2.12 8.979 1.34 5.97 10.766-.784 10.414l-38.359 2.659c.093-.371 34.113 3.075 34.113 3.075 12 2.244 4.981 12.37.109 12.924 0 0-37.439.552-37.284.435 1.92-1.45 36.9 15.416 38.427 19.833.791 1.551.516 7.384-4.63 7.4-13.881.022-34.392-9.994-51.117-16.581 12.208 9.378 38.047 14.45 37.072 19.925-.314 1.765-1.908 3.7-3.914 3.138-2.789-.786-39.608-18.073-42.442-20.97-2.314-.105 1.789-4.126 6.688-6.929 4.161-2.017 25.829 9.64 44.5 12.5l-40.105-16.762c-2.484-1.551 2.407-6.634 5.015-8.01 3.429-2.591 31.45 2.648 44.737-.58-13.744-2.18-31.606-4.024-41.029-3.986-2.181-.615 2.254-8.785 5.138-9.186 0 0 35.617-3.428 35.795-4.532.021-.126-32.332-2.069-32.332-2.069-2.836-3.217-.115-8.389 2.375-9.274l22.1-4.936s-17.271 1.581-21.385-.194-3.992-8.392-.444-9.647c18.872-6.674 19.98-10.159 19.98-10.159-7.364 3.105-14.435 6.46-21.62 2.526-1.62-1.059-3.228-7.65-.978-7.787 10.82-4.53 12.1-4.557 15.945-13.187-6.98 4.8-15.592 5.821-22.357 2.134-.779-.334-4.33-6.738-2.033-8.491 3.972-5.453 4.467-5.123 8.877-11.922-3.681 5.675-10.663 3.742-13.645 3.186-4.164-1.386-4.051-3.722-3.192-6.127z" fill="#a8a8a8"/><path d="m348.236 1521.9 56.308-34.151-18.377-40.449c-7.056 10.042-44.962 26.1-63.147 30.639z" fill="#d2d2d2"/><path d="M406.543 1449.936c4.306 3.177 2.451 15.524 2.451 15.524l71.556 75.463s29.215 6.959 29.158 35.633c-.044 22.21-37.011 59.972-64.6 92.378-8.581 10.08-18.378 40.339-40.017 77.107-22.722 38.608-171.3 34.285-192.794-5.755-1-1.87-3.239-17.959 3.827-40.628 7.454-23.915 66.955-26.885 93.621-49.755 13.877-11.9 26.559-21.6 28.615-42.162 6.115-61.153-34.279-102.783-23.776-116.582 1.19-1.563 6.909-5.028 13.888-4.744 17.336.708 44.9 13.665 44.9 13.665s3.225-40.812 22.851-49.485c2.005-.887 7.077-3.051 10.32-.659z" fill="#5a779b"/><path d="M408.994 1465.46c-1.451 1.938 23.686 31.028 42.806 54.871 3.565 4.446 1.5 24.805 6.034 21.6 2.794-1.972.339-7.63 2.458-9.485 3.781-3.31 20.232 8.518 20.258 8.473-.029-.087-69.406-78.331-71.556-75.459zm-94.411 25.699a49.336 49.336 0 0 1 17.715-.07c44.284 8.393 75.5 62.57 80.114 59.38 2.973-2.055-5.73-23.645-25.119-39.8-51.3-42.73-72.843-19.489-72.71-19.51z" fill="#2d4462"/><path d="M401.305 1737.342c21.071-37.1 31.458-69.705 40.039-79.784 21.347-25.074 51.281-54 62.41-75.805 1.307-2.605-.306-19.115-1.729-17.006 0 0-21.475 31.28-67.158 76.324-34.27 33.792-28.852 81.256-62.12 92.738-94.261 32.533-151.914-17.075-151.914-17.075 0 4.188-1.342 14.062-.883 19.136 23.463 31.882 160.258 38.614 181.355 1.472z" fill="#d2d2d2"/><path d="M275 1677.384c9.012-1.605 60.5 38.457 52.4 45.827s-48.427 13.334-79.3-.215c-15.274-6.7-24.494-17.278-20.827-24.663 6.809-13.69 35.072-18.695 47.727-20.949zm58-122.542c7.863 3.455 17.531-4.635 28.15-6.013.9.046 4.1 2.035 1.869 9.468-2.061 3.093-13.429 18.056-22.156 18.227 5.016 2.671 17.6-.157 27.184-2.357 2.795.005 4.4 3.928 3.614 5.657-2.671 5.5-18.444 18.815-29.383 16.5 9.9 6.129 27.755.3 29.666 1.164s1.76 4.179 1.76 4.179c-1.809 4.583-28.588 14.358-32.686 11.164-1.235-.963 28.683 8.618 28.683 8.618 1.791 1.179 1.916 5.722-1.182 6.2-2.443.527-30.3.587-30.8-.054-.718-.925 31.74 10.685 31.74 10.685 8.328 3.614 2.986 11.942-3.448 9.857l-37.744-7.343c.186-.334 32.161 11.785 32.161 11.785 11.013 5.269 1.615 13.238-3.234 12.513 0 0-36.311-9.14-36.132-9.213 2.231-.9 31.664 24.427 32 29.089.364 1.7-1.409 7.266-6.385 5.951-13.415-3.566-30.641-18.542-45.1-29.227 9.37 12.214 33.021 23.79 30.664 28.828-.759 1.624-2.8 3.084-4.591 2.02-2.491-1.48-33.593-27.694-35.583-31.225-2.207-.7 2.795-3.524 8.252-4.965 4.541-.874 22.461 15.987 39.755 23.57l-34.412-26.556c-2-2.14 4.039-5.787 6.914-6.442 3.982-1.617 29.7 10.685 43.368 11-12.714-5.657-29.493-12.054-38.606-14.452-1.948-1.158 4.448-7.9 7.337-7.546 0 0 35.294 5.891 35.751 4.871.052-.117-30.7-10.354-30.7-10.354-1.908-3.84 2.057-8.134 4.691-8.345l22.627.943s-17.093-2.935-20.609-5.714-1.688-9.137 2.064-9.433c19.956-1.571 21.927-4.652 21.927-4.652-7.917 1.1-15.615 2.511-21.539-3.146-1.291-1.441-1.142-8.224 1.067-7.775 11.624-1.581 15.7-3.42 21.646-10.763-7.982 2.829-19.4 3.738-24.983-1.571-.667-.524-2.442-7.628.229-8.728 9.835-3.1 15.679-8.669 19.582-15.306-5.512 3.921-15.726 8.614-21.93 5.634-3.662-2.415-2.949-4.642-1.498-6.743z" fill="#d2d2d2"/><path d="M698.508 854.463c-3.842-33.718-339.8-58.638-339.8-58.638S115.929 907.536 148.158 979.07c22.568 50.089 240.249 432.123 245.487 442.6s83.154-30.174 76.085-56.643c-44.571-166.876-138.33-358.051-138.33-358.051S705.518 916 698.508 854.463z"/><path d="M642.006 958.684c-115.256 62.694-234.366 57.663-336.894 71.135 33.383 144.247 62.841 281 96.225 425.248-16.823 29.532-86.754 36.092-86.754 36.092s-243.6-448.438-248.642-521.4C58.655 864.4 189.467 881.374 348.17 800.015c69.7-35.733 341.079 31.781 350.338 54.448s-9.589 78.702-56.502 104.221z" fill="#181f26"/><path d="M251.084 991.338c3.261-4.3 46.976 28.24 54.027 38.481l3.189 13.781s-61.83-46.172-57.216-52.262z"/><path d="M522.773 288.211s-1.371 13.534-11.787 21.1c-9.227 6.7-26.493 8.285-34.882 1.345-7.042-5.826-8.088-15.838-8.088-15.838s-88.8 44.517-98.265 71.007c-37.37 125.353 1.045 230.045-13.718 287.13-37.835 146.3-37.691 161.292-37.691 161.292C479.9 795 465.7 894.513 610.051 899.4c12.772.433 88.165-16.8 88.457-44.938.946-91.295 53.819-326.106-5-462.194-33.388-77.253-170.735-104.057-170.735-104.057z" fill="#b4c5fb"/><path d="M375.639 356.1c11.932-11.753-9.675 16.434-16.344 110.86-3.928 55.621-3.781 83.859-.573 126.853 1.6 21.464 1.1 69.549-7.892 94.619-16.073 44.835-57.237 37.306-75.212 32.639-7.535-1.956-64.393-11.725-105.959-64.8-68.9-87.984-59.129-170.291-59.129-170.291s-14.677-37.37-8.054-50.141 49.207-20.814 60.56-18.922 17.8 40.594 20.814 41.154c17.232 3.2 83.726 93.187 83.726 93.187S310.091 420.666 375.639 356.1z" fill="#a1b2ed"/><path d="M377.085 354.724a27.112 27.112 0 0 1 2.56-2.694S354.217 524.883 368.2 646.205c3.416 29.641-36.8 105.278-36.8 105.278s23.918-92.85 23.371-101.266c-18.465-148.052 22.314-295.493 22.314-295.493z" fill="#909ecd"/><path d="M650.192 355.128c30.257-11.551 53.2 53.549 55.055 60.979 32.653 131.048 41.253 276.616 15.718 317.72-17.843 28.721-52.082 56.908-165.931 65.053-115.747 8.28-136.561-31.454-136.561-31.454s-57.355.4-61.425-12.857-4.87-58.571-.125-62.225c6.855-5.278 39.791-8.645 81.891-2.969 43.991-15.61 154.62-22.829 159.588-23.193s-6.688-288.729 51.79-311.054z" fill="#d5e7fd"/><path d="M627.08 666.182c-26.61-2.678-44.674-.247-52.8 1.5 62.687 10.5 90.282 9.632 90.366 7.488.096-2.401-13.914-6.608-37.566-8.988z" fill="#a1b2ed"/><g fill="#909ecd"><path d="M267.576 551.25s38.512 103.823 38.989 98.258c2.99-34.887-36.728-104.926-36.728-104.926zM157.943 422.524s11.487 35.785 13.978 43.376c.663 2.018 4.86-.841 4.485-3.135-1.584-9.698-18.463-40.241-18.463-40.241zm-15.38 4.063s9.837 42.689 13.292 47.586c.877 1.244 3.961-.815 4.545-1.493 2.639-3.064-17.837-46.093-17.837-46.093zm-14.943 1.464s7.231 35.695 10.668 49.146c.49 1.919 4.68 1.646 5.395.076 1.897-4.166-16.063-49.222-16.063-49.222zm-19.854 4.758s7.784 35.146 11.873 48.463c.583 1.9 4.717 2.34 5.37.807 1.735-4.067-17.243-49.27-17.243-49.27z"/></g><path d="M361.055 748.405s42.547 3.21 55.765 4.391a3.543 3.543 0 0 1 2.78 4.504c-3.29 8.045-58.545-8.895-58.545-8.895zm-2.343-17.296s42.71 2.114 58.368 2.412c5.552.106 4.772 6.274.956 6.3-35.587.264-59.324-8.712-59.324-8.712zm1.038-16.481s46.4 1.663 57.211 1.972c5.051.144 3.834 5.065.811 5.45-22.033 2.807-58.022-7.422-58.022-7.422zm1.387-12.538s49.579 4.028 57.21 4.67c2.131.179 2.065-3.713-1.4-4.832-19.335-6.242-55.81.162-55.81.162z" fill="#b3bef5"/><path d="M359.876 703.658s9.546 39.008-6.206 46.55c-32.265 15.45-62.737-15.778-62.737-15.778s-10.589 46.447-19.29 43.752c-6.989-2.165 4.011-51.268 4.011-51.268s-6.436 11.325-16.028 26.4c-6.6 10.371-16.42 21.881-21.634 16.653-5.074-5.088 18.421-45.311 20.964-53.2 4.257-13.208-39.916 66.318-54.522 51.712-2.593-2.593 1.414-10.96 1.414-10.96s-12.241 7.7-13.474.825c-1.375-7.661 36.455-62.538 44.311-68.2s123.191 13.514 123.191 13.514z" fill="#744747"/><path d="m205.848 757.515 40.631-55.135L197.742 761c1.31-.063 4.787-1.83 8.106-3.485z" fill="#633b3b"/><path d="M156.866 418.806c-5.07-23.144-8.388-39.277-33.1-46.339-3.16-.9-5.643-28.661-23.329-34.641-10.148-3.432.345 25.313 2.113 30.918s-23.145-4.527-22.8-7.822c6.248-60.134-6.165-55.875-8.784-51.383-2.449 4.2-9.428 32.055-9.428 32.055-14.142-48.082-27.315-70.408-32.055-60.1-.924 2.011-2.593 9.9 1.885 35.355 0 0-20.787-31.819-30.169-25.927-9.095 5.713 36.747 66.31 36.747 66.31.258 14.063 6.386 15.477 16.006 20.955-.451 11.736 11.023 15.53 44.538 30.994 8.522 3.931 18.959 21.665 18.959 21.665 3.606 6.316 39.417-3.915 39.417-12.04z" fill="#744747"/><path d="M31.364 316.845s-20.788-31.819-30.17-25.927c-9.094 5.713 36.747 66.31 36.747 66.31zM95.662 369.5c5.944 4.9 14.3 8.4 21.489 11.094 17.52 6.575 27.12 16.54 35.783 21.883-4.233-14.461-10.772-24.748-29.17-30.006-3.16-.9-5.643-28.661-23.329-34.641-10.148-3.432.345 25.313 2.113 30.918.682 2.157-2.61 1.973-6.886.752zm-39.871-46.278-9.409 50.727c2.133 1.257 4.715 2.693 7.565 4.235l7.586-36.59zm23.954 37.7s-4.86 14.328-2.508 15.356c1.989.869 7.345-11.3 7.345-11.3-2.762-1.429-4.543-2.791-4.837-4.056z" fill="#633b3b"/></svg></g><g transform="translate(1599.0 1523.0) rotate(0.0 -295.0 119.0) scale(-0.5137135393992164 0.5123789020452099)"><svg width="1148.5" height="464.5" viewBox="0 0 1148.5 464.5"><rect height="42" rx="18.561" transform="matrix(-1 -0 0 -1 414.5 887)" width="414.5" y="422.5"/><path d="M379.021 464.5H990L1148.5 0 544 .5z" fill="#d5d8d8"/></svg></g><g transform="translate(968.0 1750.0) rotate(0.0 615.0 442.0) scale(0.9994206610314509 0.999195218330937)"><svg width="1230.713" height="884.712" viewBox="0 0 1230.713 884.712"><path d="M1230.713 884.712h-40.405L1023.184 21.536h41.802zM0 884.48h40.405L207.529 21.305h-41.802z" fill="#101c1f"/><path d="M40.949 0h1133.749v43.072H40.949z" fill="#a8a8a8"/></svg></g><g transform="translate(1973.0 892.0) rotate(0.0 442.5 921.0) scale(1.02204971203605 1.0225181591342458)"><svg width="865.907" height="1801.435" viewBox="0 0 865.907 1801.435"><linearGradient id="c" gradientTransform="matrix(-.998 .061 .061 .998 -4392.581 181.346)" gradientUnits="userSpaceOnUse" x1="-4702.776" x2="-4665.829" y1="282.652" y2="282.652"><stop offset=".077" stop-color="#fab697"/><stop offset=".577" stop-color="#fd7b68"/></linearGradient><linearGradient id="d" gradientTransform="matrix(.825 .566 .566 -.825 -12983.486 11413.835)" gradientUnits="userSpaceOnUse" x1="4629.169" x2="4666.117" y1="16847.494" y2="16847.494"><stop offset=".077" stop-color="#fab697"/><stop offset=".727" stop-color="#fd7b60"/></linearGradient><path d="M638.238 833.794c-35.6 141.895-105.905 243.832-126.827 295.665-52.711 130.588-135.786 317.041-184.879 431.579l-74.873-23.4L364.2 1118.129l88.218-328.856z" fill="#f58f73"/><path d="M452.754 789.273c-8.583 33.864-30.092 109.036-38.675 142.9 60.783 16.931 133.991 32.321 182.275 24.374 16.747-35.188 30.16-77.232 41.884-122.753z" fill="#dd856c"/><path d="M334.827 1486.7c-4.725-10.84-64.452-110.213-79.212-1.39-3.457 25.487-20.619 96.158-24.147 100.716-18.656 24.1-83.988 62.387-89.53 61.878-62.227-5.72-92.12-13.873-114.6 14.537-26.445 33.421-10.243 65.467-11.994 65.629-8.251.768-19.627 29.483 8.536 29.849 4.843.063 145.508 3.092 148.46-4.7 2.682-7.079 2.719-19.71 2.719-19.71 12.172 2.527 25.722 2.661 40.1 1.36 0 0-.7 11.845.427 14.286 1.96 4.24 47.7 2.981 80.449-1.373 4.534-.6 21.58-42.353 20.592-114.243-.435-31.627 58.225-158.789 51.812-164.391-4.916-4.3-13.95-7.793-18.078-5.118-8.223 5.321-13.543 27.234-15.534 22.67z" fill="#242929"/><path d="M272.574 1512.615c-6.47-.235-21.941 1.428-19.674-.192s17.98-4.055 20.117-6.148c1.283-.941 1.283-5 .556-5.261-6.562-2.316-19.162-.856-19.293-8-1.482 1.411-2.552 3.082-1 5.832 2.934 3.755 14.31 2.987 16.481 4.479s-11.283 4.637-18.162 5.086c-1.942.334-2.524 5.368-2.267 5.938 1.892 5.528 12.155 2.269 17.214 2.938s-9.73 3.353-17.267 2.179c-1.219-.836-2.6 4.033-2.223 5.487 2 5.885 11.83 5.142 16.969 5.925 0 0-3.83 3.924-17.484 1.944-2.411-.35-4.271 4.277-2.919 7.3s8.392 3.959 15.618 5.437c4.748.971-16.523 1.416-16.523 1.416-1.667-.386-4.524 4.424-2.142 5.721s16.68 5.08 16.615 5.164c3.264 2.339-17.1.24-17.1.24-2.766-.536-3.549 5.516-2.11 6.235 5.345 2.667 11.059 2.783 13.44 4.4 2.833 1.92-11.9 1.974-14.784 2.452-1.939-.074-4.538 6.462-2.093 6.976 0 0 12.472.964 17.313 2.4 3.854 1.147-10.2 1.251-17.722 1.251-3.231 0-5.881 5.682-4.734 6.723 1.331 1.209 18.672 3.831 15.887 4.615-8.008.348-12.785-1.938-17.331-2.161-2.4-.119-5.047 3.152-5.046 3.866-.127 2.816 6.133 2.066 14.031 7.044 7.185 4.528-11.847-1.7-17.411-3.2-1.134-.526-4.484 2.146-4.678 3.777-.268 2.257 10.8 7.82 11.888 10.265 0 0-1.183 2.83-15.392-6.514-2.585-1.7-8.33 2.343-7.6 5.106.336 1.274 3.763 3.047 10.483 9.625 4.416 4.322-16.2-6.154-16.2-6.154-1.529-1.559-9.162 2.839-7.318 5.758s14.52 12.146 14.415 12.177c2.268 4.519-20.141-9.207-20.141-9.207-2.3-1.727-8.853 3.831-7.709 5.534 4.249 6.323 10.885 9.142 13.978 12.055 2.02 3.821-18.267-6.485-21.444-8.125-1.951-1.466-8.63 3.259-6.362 5.5 0 0 13.346 9.34 17.642 14.164 3.42 3.84-11.018-6.194-18.721-11.616-3.309-2.33-8.631 1.024-7.934 2.815 1.04 2.673 5.038 3.611 18.261 16.436 1.382 1.341 2.411.655 2.238-1.029-2.12-6.181-18.932-17.365-15-15.637 4.852 2.4 8.638 5.683 19.049 13.28 5.072 3.7 8.056-2.3 7.961-3.163-.7-8.322-24.266-17.552-18.254-16.456.158.029 19.884 9.646 21.254 10.63s8.509-3.574 6.111-6.643c0 0-10.835-9.865-12.511-12.756-1.294-2.233 17.7 9.177 17.7 9.177 5.712 2.327 11.675-3.743 8.786-7.21a69.908 69.908 0 0 1-12.73-9.787c-5.6-5.447 11.7 2.992 15.593 5.134 3.417 1.881 9.095-3.01 6.618-5.275 0 0-14.534-13.108-8.965-9.814s12.61 7.225 18.172 6.266c0 0 4.728-1.93 2.9-4.628-.979-1.446-16.5-10.465-10.675-9.622 7.34 2.278 14.912 4.869 19.988 3.529 1.567-.456 3.339-3.645 1.869-5.425-6.518-4.882-18.446-6.622-15.381-6.488s18.921 2 20.3 1.729 2.6-2.507 2.524-4.352-20.417-5.672-16.948-6.506c4.375-.811 8.294-.318 18.556-.1 5 .1 5-3.592 4.637-5.183-.254-3.345-15.861-4.836-18.774-4.744 2.092-.16 12.872-1.024 12.872-1.024 6.7-.152 7.891-6.626 4.362-8.05 0 0-11.457-2.8-13.707-4.17-1.738-1.059 15.923.658 15.923.658 5 .625 5.941-6.254 2.606-7.4 0 0-8.271-2.382-15.067-3.747-6.007-1.206 12.89-2.145 16.478-2.624 3.148-.42 5.051-5.406 2.445-5.823 0 0-21.265-5.649-16.051-6.15s18.322-1.214 20.729-4.58c0 0 1.037-2.683.117-3.793s-21.888-4.092-18.013-4.733c5.85-.968 19.559-1.841 22.754-5.774.974-1.252 1.113-4.802-.59-5.399z" fill="#fff"/><path d="M801.166 797.677s-49.535 267.607-51.5 304.493c-9.754 183.475-72.764 435.47-72.764 435.47l-75-10.075s-16.244-288.853-4.478-428.753c9.791-116.424-11.194-291.06-11.194-291.06z" fill="#fbb798"/><path d="M586.23 807.6c3.143 34.793 8.947 116.091 12.09 150.884 62.957-4.2 138.411-18.537 181.32-42.06l21.526-118.751zm126.788 312.811c17.192-9.491-10.437 27.826-47.179 24.724-28.956-2.445-51.786-41.869-35.529-28.938 22.034 17.524 42.352 26.492 82.708 4.214z" fill="#f58f73"/><path d="M694.153 1507.3c.757-5.2-9.209-6.478-10.02-2.238-.452 2.36-3.478 17.116-3.478 17.116-5.826-56.913-66.813-55.363-76.892-3.937 0 0-2.332-11.832-3.147-15.48s-8.721-2.662-8.9.761 8.15 51.377 6.1 126.616c-.266 9.758-5.343 53.089-10.87 57.145-17.557 12.888-22.209 26.584-25.212 59.852 0 0-6.782 3.489-9.9 7.852s.419 32.745.419 32.745c15.069 14.027 163.145 19.425 170.023 5.877 0 0 5.067-20.25 3.358-28.547s-9.461-16.567-9.461-16.567c.258-30.752-9.3-47.808-22.864-59.418-5.774-4.944-12.09-38.746-13.574-60.231-2.596-37.66 13.865-117.765 14.418-121.546z" fill="#242929"/><path d="M612.237 1698.2c2.135-1.561 5.118-6.165 41.017-8.129 14.521-.8-35.32-5.916-37.182-6.411s-3.139-1.674-2.535-4.335c1.656-7.292 18.281-10.664 34.311-10.1-8.163-.768-19.258-1.956-28.887-3.451-4.794-.551-4.512-3.972-3.679-6.379 2.042-5.9 21.185-5.073 37.13-3.435 1.678.172 6.04-.26 2.432-1.051-21.885-4.8-30.907-4.16-37.1-4.772-5.193-.514-4.015-5.3-1.18-6.791 14.385-7.926 45.652-1.355 39.074-4.455s-35.18-2.69-38.13-4.628-.426-4.259 1.8-5.321c4.967-2.365 11.126-3.989 31.677-1.576 7.22.138-27.337-4.838-34.409-5.845a3.47 3.47 0 0 1-.864-.123l-.2-.029c-1.125-.154-1.575-.558-1.657-1.056a1.253 1.253 0 0 1 .184-1.969c1.976-1.667 4.735-6.59 38.006-8.64 13.458-.83-32.746-6.381-34.472-6.913s-2.912-1.8-2.356-4.642c1.525-7.8 16.929-11.385 31.788-10.76-7.568-.834-17.853-2.121-26.78-3.734-4.444-.6-4.187-4.256-3.419-6.83 1.884-6.314 19.629-5.4 34.41-3.624 1.556.187 5.6-.269 2.253-1.12-20.292-5.166-28.653-4.5-34.392-5.16-4.813-.557-4.7-5.414-2.8-6.257 13.321-8.461 44.01-2.4 37.909-5.722s-32.611-2.929-35.349-5.007-.4-4.558 1.664-5.691c14.733-8.082 40.078-1.372 41.54-.022a.937.937 0 0 1-.731 1.687c-9.056-1.589-36.753-5.354-33.37-.457 1.9 2.753 32.37 6.454 35.772 11.043.684.923 1.858 4.492-.408 4.58-2.152.084-24.984-2.758-37.193-.811-7.34 1.17-7.205 3.186-2.943 3.2 3.851.012 35.746 4.443 40.245 8.775 1.129 1.087 2.434 5.76.935 6.457-2.049.955-30.885-2.86-36.042-2.26-1.809.2-1.229 1.715.022 2.2s34.411 9.078 36.962 10.518 3.295 7.289 1.068 7.22-40.995-5.024-43.257 2.067c-.351 1.1 4.35 1.541 6.358 1.768 1.237.139 35.235 1.2 36.4 9.056.489 2.189-1.178 4.869-3.359 4.8a168.658 168.658 0 0 0-33.44 3.124 51.609 51.609 0 0 0-5.693 1.58l32.948 5.214c3.863.652 8.607 1.153 7.92 4.154a2.992 2.992 0 0 1-2.133 2.235c-2.71.914-6.139.237-18.118-.663-12.73-1.414-19.212-.516-17.1 2.137 2.048 2.571 36.052 3.814 39.023 8.484.737 1.159.514 4.4-1.458 4.311-2.3-.1-25.94-2.572-39.114-.735-7.921 1.105-7.778 2.989-3.18 3 4.154.006 38.559 4.1 43.407 8.143 1.217 1.015 2.618 5.379 1 6.034-2.213.895-33.318-2.63-38.882-2.061-1.953.19-1.329 1.6.02 2.052s36.633 8.157 38.912 9.43c3.52 1.965 4.012 6.55 2.093 7.092-2.314.653-44.222-4.636-46.672 1.994-.381 1.03 4.69 1.434 6.856 1.643 1.335.128 38.013 1.07 39.264 8.411.524 2.046-2.011 4.727-3.673 4.658a194.388 194.388 0 0 0-36.041 2.8c-8.338 1.615-11.008 3.445-12.762 3.976s-5.577-1.313-3.44-2.878zm93.154 70.966c-28.077 17.7-131.156 2.136-138.632-9.286 6.893 21.897 130.441 29.22 138.632 9.286z" fill="#fff"/><path d="M690.531 505.169S843.763 587.377 865.857 805.4c3.317 32.728-159.759 189.617-451.469 70.936-7.148-2.908 98.5-286.508 98.5-286.508z" fill="#242929"/><path d="M638.238 749.192c-5.978 20.152-75.682 77.96-76.6 76.327s32.259-27.842 70.254-79.064c3.139-4.613 7.974-2.755 6.346 2.737zm-3.392-127.669c.185 47.088-63.9 172.243-67.9 173.181s42.877-101.388 57.993-173.153c1.581-7.504 9.877-7.672 9.907-.028z" fill="#121616"/><path d="M288.91 433.976 158.9 795.445s-86.544-7.063-101.81 1.469C27.228 813.6 0 835.462 0 839.105s41.284-2.989 89.485 3.358c67.247 8.854 74.723 4.51 82.988.271C198.3 829.489 275.685 657.542 288.91 634.625c50.032-86.7 86.422-148.8 86.422-148.8z" fill="#fbb798"/><path d="M285.487 443.494s39.418 28.08 39.063 34.024c-.211 3.542-43.3 171.93-43.3 171.93l94.085-163.619-86.425-51.853zM55.046 839.767s-11.694-5.846-6.356-11.621c8.961-9.695 73.488-7.016 75.653-11.017 1.907-3.526-41.259-10.031-67.28.881-22.763 9.548-14.113 21.558-14.113 21.558z" fill="#f58f73"/><path d="M333.585 286.54c-18.9 23.986-57.9 147.074-57.9 150.141s102.958 59.767 105.906 57.738c1.775-1.221 4.012-7.05 4.012-7.05s29.343 46.428 97.39 59.8c21.262 4.178 24.322 49.124 26.661 51.365 38.656 37.041 187.11-80.593 182.533-92.429l-77.064-199.276s12.913-16.477 14.091-22.487c1.017-5.187-78.64-80.482-119.165-72.453-43.979 8.711-157.565 50.666-176.464 74.651z" fill="#d4d8d8"/><path d="m363.915 403.811-28.38 68.008s43.8 24.416 46.056 22.6 4.012-7.051 4.012-7.051c-9.288-17.956-17.054-43.231-21.688-83.557zm144.031-92.748s79.634 149.343 71.759 176.329c-14.957 51.256-69.41 71.274-80.29 75.651 3.805 9.709 9.656 34.686 10.239 35.491 16.714 23.083 88.79-6.538 159.9-66.5z" fill="#a8a8a8"/><path d="M493.069 453.074c10.006-16.9 12.681 27.343-26.541 40.266-36.813 12.129-58.855-23.74-40.184-14.636 21.744 10.603 50.787 1.286 66.725-25.63zm-42.669-53.99c-.493 6.642 4.822 36.853 12.332 49.026 2.37 3.841 6.517 5.655 5.794-3.542-.546-6.935-5.378-33.656-10.073-48.65-2.466-7.889-7.353-6.17-8.053 3.166zm-40.647 14.894c.661 6.627 11.108 35.468 20.606 46.162 3 3.375 7.4 4.447 5.1-4.488-1.734-6.737-11.1-32.223-18.316-46.183-3.798-7.343-8.318-4.806-7.39 4.509z" fill="#fff"/><path d="M403.677 269.662c-6.583 5.735-14.111 6.205-21.491 3.048a21.18 21.18 0 0 1-10.819-11.2l-2.034-22.023c-35.525-1.022-65.782-17.568-77.231-43.7-2.787-6.362-3.548-11.152-4.76-31.034-.519-8.512-8.211-20.135-11.774-36.3-1.948-8.841-4.928-22.359-2.134-34.991 6.542-29.576 38.231-68.926 84.771-67.819 37.949.9 75.241 26.737 80.52 66.283.77-.469 10.546-9.976 19.373-7.09a13.558 13.558 0 0 1 7.3 5.464c1.107 1.741 5.29 7.592 4.126 20.631-1 11.244-5.2 18.989-9.093 23.336-3.018 3.372-7.837 7.64-14.056 4.654-3.167-1.52-6.425-6.592-7.474-12.833a83.85 83.85 0 0 1-.7 51.3c-6.91 20.349-30.022 40.753-30.019 40.749l1.412 38.833s-1.839 9.769-5.917 12.692z" fill="#fdb291"/><path d="M372.88 171.091c1.892-.116-5.934 22.471-17.3 27.63-12.787 5.805-31.317-2.1-33.616-6.492-1.644-3.147 47.727-20.944 50.916-21.138z" fill="#fff"/><path d="M326.684 160.62c-2.506 2.468-2.35 7.57-.312 10.459 4.506 6.385 23.3 1.264 24.529-2.445 1.599-4.843-18.311-13.834-24.217-8.014zm47.084 9.467c-3.325-4.156-53.155 18.2-53.75 21.311-.732 3.837 23.352-6.169 33.523-10.586 22.559-9.796 20.352-10.569 20.227-10.725z" fill="#f88c79"/><path d="M408.03 218.3c-3.61 3.068-14.265 15.107-38.563 21.334l4.338 53.52s20.357 15.533 40.583-13.047zM359.815 25.749c.938.033 6.1 23.18 6.1 23.18-20.433 2.264-91.536 40.37-92.246 44.181 1.247-10.437 24.068-68.329 86.146-67.361z" fill="#f58f73"/><circle cx="300.241" cy="178.367" fill="url(#c)" r="18.474"/><circle cx="379.177" cy="149.826" fill="url(#d)" r="18.474"/><path d="M505.659 216.145c18.831 13.089 20.256 42.014-1.442 54.189 6.738 8.647 1.534 40.719-34.768 52.424-11.729 3.781-43.787 4.414-58.721-13.5-6.85-8.219-7.572-17.794-7.945-21.346-3.328-31.709-15.554-145.5-29.649-206.051-8.085-34.732-13.688-53.266-13.688-53.266-13.777 6.642-80.64 42.457-85.97 68.834-1.83 9.051-3.311 18.927 11.562 57.088a60.126 60.126 0 0 1 3.076 9.923c-.069 45.562 28.792 70.652 81.262 75.046.6.172 33.152 93.045-11.556 120.455-18.276 11.2-43.034 1.313-46.508-.012-19.094-7.28-38.413-38.47-38.413-38.47-28.789-12.956-50.181-52.464-17.229-95.761 2.515-3.3 1.168-7.708 1.335-11.334a187.758 187.758 0 0 0-.977-29.5c-1.153-18.912-13.192-74.286-11.5-95.161.542-6.677 78.71-81.412 125.94-82.661 27.481-.726 80.472 31.587 104.444 62.918 9.34 12.2 20.28 138.911 30.747 146.185z"/><circle cx="354.303" cy="120.446" r="8.053"/><circle cx="300.505" cy="145.715" r="8.053"/><path d="M372.477 86.643c-.906-3.269-29.1-1.7-35.357 11.647-5.04 10.748 14.957-3.76 32.577-10.529 2.886-1.108 2.913-.637 2.78-1.118zm-76.872 31.263c-10.171 4.416-16.391 17.134-15.1 17.055.946-.057 11.463-7 23.779-14.737 4.892-3.071-1.673-5.361-8.679-2.318zM371.008 8.029c-.263-.8 13.253-9.929 25.356-6.924 6 1.489 9.777 5.138 12.161 7.409 19.791 18.851 37.041 33.086 36.627 33.522-.453.478-20.346-17.217-41.182-30.4-3.224-2.036-9.679-6.016-18.428-6.466-7.849-.404-14.366 3.371-14.534 2.859z"/><path d="M445.176 42.582c-.474 0-1.614-.905-6.393-4.741-7.372-5.918-21.1-16.933-35.08-25.779-2.81-1.778-9.39-5.94-18.187-6.393a32.1 32.1 0 0 0-12.662 2.382c-1.3.48-1.7.624-2.031.463l-.192-.093-.1-.237a.9.9 0 0 1 .31-.846c1.676-1.8 14.168-9.566 25.641-6.718 6.06 1.505 9.971 5.231 12.308 7.458l.078.074c11.135 10.606 21.463 19.748 28.3 25.8 7.943 7.032 8.47 7.564 8.491 8.041l.009.212-.153.177c-.109.112-.192.2-.339.2zM384.365 4.64q.6 0 1.2.031c9.058.466 15.793 4.726 18.669 6.546a379.492 379.492 0 0 1 32.677 23.844l-.409-.362c-6.84-6.055-17.176-15.2-28.325-25.823L408.1 8.8c-2.411-2.3-6.056-5.771-11.859-7.212C386.912-.727 376.7 4.431 372.95 6.95a33.489 33.489 0 0 1 11.415-2.31zm-42.073 30.69c.527.841-30.461 11.889-50.182 42.6-4.172 6.5-21.909 35.208-12.444 58.7 3.988 9.9 9.4 11.1 13.6 22.161 5.65 14.876 1.7 29.69.839 33.262-1.19 4.924-2.525 9.255-2.964 9.171-.836-.158 4.462-15.75.862-32.239-2.362-10.818-7.091-15.2-10.787-22.334-12.14-23.415-3.038-56.163 10.443-76.047 18.863-27.816 50.117-36.104 50.633-35.274z"/><path d="M291.191 201.733a.744.744 0 0 1-.139-.017c-.711-.135-.6-.747-.051-3.688 1.02-5.49 3.143-16.914.518-28.937-1.633-7.477-4.462-11.928-7.2-16.232-1.191-1.875-2.423-3.813-3.545-5.978-11.787-22.734-3.653-55.722 10.473-76.557C309.776 43 339.7 34.775 342.066 34.775h.017a.729.729 0 0 1 .633.29l.117.186-.055.251c-.106.385-.441.576-3.028 1.9-7.738 3.955-31.285 15.988-47.219 40.8-6.627 10.32-21.1 36.652-12.4 58.239a35.792 35.792 0 0 0 6.349 10.15 39.09 39.09 0 0 1 7.258 12.021c3.66 9.635 3.98 20.792.954 33.16l-.1.4c-2.127 8.814-2.938 9.561-3.401 9.561zM339.957 36.17c-7.418 1.91-31.827 11.037-47.88 34.715-13.96 20.59-22.02 53.149-10.413 75.536 1.1 2.126 2.321 4.045 3.5 5.9 2.782 4.378 5.66 8.905 7.33 16.556 2.587 11.845.649 23.068-.413 28.8.437-1.433.962-3.35 1.541-5.746l.1-.4c2.977-12.167 2.669-23.124-.917-32.567a38.261 38.261 0 0 0-7.1-11.744 37.108 37.108 0 0 1-6.5-10.408c-8.873-22.02 5.777-48.7 12.487-59.153 16.078-25.04 39.808-37.165 47.608-41.15z"/><path d="M440.6 98.624c4.463-20.2 29.85-24.13 31.552 3.771.865 14.184-8.3 40.868-20.389 39.208-9.576-1.314-16.98-16.667-11.163-42.979z" fill="#f58f73"/><path d="m559.228 381.249 65.979 93.306-128.251 58.615s-33.323-8.224-65.3 24.872c-16.453 17.027-34.21 19.084-31.1 22.891 12.135 14.853 44.944-7.264 42.883-5.232-26.792 26.411-33.908 38.12-33.908 38.12-47.905 3.947-48.528 25.472-43.136 24.915 1.359-.141 19.546-1.334 15.838.142-24.391 9.712-19.515 23.543-18.035 23.546 4.916.01 50.167-23.688 62.438-32.055s52.247-46.3 76.216-58.567c1.322-.677 5.274-2.1 10.711-4.233 15.935-6.254 55.4-18.972 183.816-40.25 33.951-5.626 37.83-37.692 27.527-54.744-55.108-91.2-108.676-167.182-108.676-167.182z" fill="#fbb798"/><g fill="#f58f73"><path d="M382.712 638.484h-.012c.065.1-.067.229-.47.39-24.391 9.712-19.515 23.543-18.035 23.546 4.25.008 38.643-17.7 55.814-27.906zm245.357-315.993-59.323 72.218-9.518-13.46 56.999-75.856zm-84.682 189.458s76.966-33.883 81.632-32.61 14.242 10.684 14.777 10.129c.577-.6-10.636-16.719-14.589-14.913z"/></g></svg></g><g transform="translate(275.0 682.0) rotate(0.0 467.5 994.5) scale(1.1236508678550525 1.1247646137403373)"><svg width="832.109" height="1768.37" viewBox="0 0 832.109 1768.37"><linearGradient id="e" gradientUnits="userSpaceOnUse" x1="353.291" x2="395.012" y1="158.407" y2="158.407"><stop offset=".382" stop-color="#f69379"/><stop offset=".994" stop-color="#fab697"/></linearGradient><linearGradient id="f" gradientTransform="matrix(-.912 .119 -.133 -.971 9234.978 14796.711)" gradientUnits="userSpaceOnUse" x1="7284.391" x2="7311.759" y1="15975.095" y2="15975.095"><stop offset=".197" stop-color="#fab697"/><stop offset=".724" stop-color="#f69379"/></linearGradient><path d="M378.997 1531.797h99.627v78.078h-99.627z" fill="#6b8082"/><path d="M369.174 1587.663c-2.189 5.6 6.275 21.7 6.275 21.7l-8.155 59.659c-8.709-1.782-12.059 35.935-6.155 46.215s34.451 6.722 74.454 9.625c25.819 1.873 46.019-1.781 72.4 10.663 67.873 32.016 134.312 9.218 150.434 1.9 9.324-8.441 14.694-29.806.36-42.457-34.409-9.138-148.668-61.593-172.375-109.35-6.273-12.635.283-24.809-5.539-31.187-13-14.244-56.757 20.053-55.215 25.415-.004-1.458-51.128-5.895-56.484 7.817z" fill="#020202"/><path d="M372.356 1685.527a60.985 60.985 0 0 0 5.061 16.507c-1.617 2.917 47.156 13.426 87.961 10.426 14.736-1.083 33.565 5.647 63.69 18.214 30.254 14.034 130.379 2.375 126.67-1.011 2.676-3.314 2.056-8.314 2.052-11.813 0 0-84.4 15.644-124.771 1.554s-53.56-19.272-70.684-17.907c-25.201 2.008-86.058-9.782-89.979-15.97zm15.001-23.103-1.568 8.025s21.983 5.558 38.413 3.8c16.65-1.782 14.542-2.375 31.035 1.724 13.171 3.274 42 17.737 42 17.737l3.331-2.225s-45.015-27.275-66.366-25.521c-21.283 1.747-46.845-3.54-46.845-3.54zm266.136 31.21c-8.332 13.621-47.282 14.446-99.644 9.665 0 0 65.951 13.025 91.8.509 12.19-5.877 13.138-8.843 13.138-8.843zm-158.456-95.698c1.787-6.47-56.665-8.93-54.522 9.914.288 2.532 1.046 3 3.867 3.671 3.6.858 47.245-4.061 54-.453 0 0-37.888 5.606-43.624 13.67-1.726 2.426-1.851 6.812-.222 11.261 1.718 4.693 61.315-14.285 67.033-7.636 0 0-45.005 4.412-46.1 27.44-.149 3.144 2.373 8.748 5.8 7.017 42.308-21.379 57.641-15.036 57.641-15.036s-31.19 14.933-33.469 28.3c-1.015 5.951 3.438 10.873 5.381 10.247 10.51-3.386 46.242-27.37 49.062-25.1 0 0-31.123 17.9-31.233 35.419-.023 3.6.935 5.164 2.306 4.392 17.958-10.118 37.87-27.174 66.813-30.772-.03-3.444-6.8-5.683-9.591-5.93s-24.5 6.578-53.272 27.236c-3.787-11.216 27.875-26.836 44.1-30.892 1.986-.5-6.8-5.682-10.645-6.225-9.432-1.332-60.955 22.248-57.5 24.578-3.052-14.379 32.065-27.312 44.745-31.4.971-.313-4.691-5.09-7.852-5.979-15.18-4.269-64.715 8.03-63.974 13.872 4.764-15.3 18.592-22.716 47.268-24.5 2.319-.144-2.582-4.5-7.167-6.325-11.567-4.612-61.694 3.473-60.95 5.893-3.836-11.182 31.655-14.128 48.829-14.689.5-.016-3.12-5.558-7.22-7.956-20.153-11.789-55.451-2.974-55.451-2.974-1.418-4.863 19.371-8.427 45.947-7.043z" fill="#fff"/><path d="m151.868 1632.007-70.721-7.884 10.343-97.995 71.269 5.669z" fill="#6b8082"/><path d="M169.086 1660.147c-2.215-5.232-3.951-13.736-2.38-21.363 13.555-65.814 13.246-61.794 9.765-63.822s-12.551-5.967-15.2-.027c-3.1 6.952-8.724 22.325-8.724 22.325-9.6-31.356-50.016-33.785-67.461-5.74 0 0-2.262-11.148-4.443-16.726s-17.419-2.929-16.87-.03c-2.932 6.087 5.492 49.4 5.879 64.326a64.418 64.418 0 0 1-2.327 20.045c-6.74 22.243-22.542 37.576-27.417 54.786-1.288 4.547-2.4 30.518 5.64 36.82 24.944 19.552 106.847 24.815 139.518 5.652 7.643-4.483 8.127-32.616 7.787-36.652-.736-8.724-1.521-7.049-23.767-59.594z" fill="#020202"/><path d="M63.864 1702.278c9.9 13.016 80.117 24.491 115.214 3.515 0 0-35.582 27.3-106.4 5.245-12.7-4.989-12.49-8.81-12.49-8.81zm-19.935 18.001s15.3 23.31 83.1 22.077c46-.836 61.914-18.278 61.914-18.278s-3.68 22.369-4.551 25.26-38.854 24.954-113.909 7.074c-12.074-2.877-22.078-7.519-23.671-15.666s-2.883-20.467-2.883-20.467zm41.996-119.713c-2.119-.075-5.355 2.932-4.69 5.222 1.584 8.218 59.3 11.081 61.006 11.223 2.761.23 9.226.675 8.739 1.829-3.134 7.429-64.063-.948-67.127-1.013s-2.058 6.054 1.445 7.552 50.809 10.715 52.528 11.214 2.512 2.083.023 2.3c-7.1.645-48.161-2.511-50.984-1.505-2.063.735-.466 5.925 1.266 6.755 6.229 2.984 50.082 6.431 53.829 7.352s1.853 2.1-2.217 2.608c-16.8 2.082-47.2-1.881-50.073-2.428s-1.513 3.5-.575 4.8c3.781 5.225 46.559 8.564 49.166 11.439 4.637 5.114-42.82.158-53.709-4.69-.548-.244-2.719 2.174-1.217 2.886s43.535 8.915 65.154 3.044c2.976-.808 6.067-3.8 2.308-5.961s-40.223-1.663-48.6-5.124 35.04 6.695 53.391-2.2c2.607-.888 3.694-8.4-2.947-8.207-5.364.152-21.943 4.947-50.83-3.378-4.5-1.3.964-1.371 3.1-1.18 20.325 1.81 46.144 1.966 48.757-4.647 1.065-2.7 1.43-6.527-4.68-7.137-27.158-3.671-63.522-9.063-48.088-8.031 23.1 2.683 58.4 5.534 60.923-4.164.775-2.981-.852-4.3-3.224-4.85s-69.779-6.88-51.288-5.579c44.133 3.106 56.308-9.511 59.031-11.262s-2.156-3.81-4.392-3.213-5.644 2.65-16.276 4.472c-25.505 3.691-57.631 1.948-59.749 1.873z" fill="#fff"/><path d="M196.648 731.426C138.849 1093.174 88.581 1325.9 63 1547.043c-2.444 15.039 136.3 24.759 140.274 8.5 57.844-247.2 109.481-479.087 147.924-678.414 5.951 245.691-10.272 671.092-1.7 681.815 12.785 15.992 141.124 15.3 144.524 5.951s42.508-404.668 29.751-816.138z" fill="#0d2123"/><path d="M356.557 857.551q-3.184.166-5.362 19.579c5.951 245.691-10.272 671.092-1.7 681.815 6.872 8.6 47.122 12.369 83.416 12.572q-56.925-714.963-76.354-713.966zm135.291 336.509c14.137-6.721.18 16.547-30.508 16.766-31.315.223-35.229-11.812-30.294-11.085 22.301 3.286 37.304 5.491 60.802-5.681zm-229.069 10.34c14.279-1.053-17.848 15.138-53.1 6.429-37-9.14-35-22.539-30.342-20.741 39.268 15.171 57.494 16.225 83.442 14.312z" fill="#001619"/><path d="M517.293 299.739c-40.486-45.344-248.619-38.33-303.641-16.194C143.208 311.885-17.216 531 1.509 608.238c12.955 53.44 167.609 35.627 167.609 35.627-2.429 18.623 11.336 44.534 21.862 51.011-4.439 19.559-.809 50.2 2.429 55.06 14.575 24.292 306.07 39.676 330.361 12.956 4.859-4.858 6.415-41.919 2.429-69.635 11.5-15.049 18.265-31.94 19.433-51.012 0 0 78.921 5.082 210.65-223.371a5.154 5.154 0 0 0-.47-5.827l-52.278-64.131a5.15 5.15 0 0 0-7.564-.454L587.737 452.774s-43.684-123.063-70.444-153.035z" fill="#e3e0d6"/><g fill="#f3f1e9"><path d="M737.4 450.659c-27.214-16.569-39.781-53.595-47.29-75.717-2.176-6.41-4.642-13.676-5.9-15.2l8.653-8.311c2.855 2.935 4.81 8.453 8.614 19.659 6.985 20.579 18.676 55.022 42.167 69.324zm-26.2 40.756c-51.289-34.462-49.575-76.237-48.654-98.68.2-4.784.44-10.738-.318-12.211a1.383 1.383 0 0 0 .211.271l8.627-8.342c4.146 4.288 3.862 11.2 3.47 20.774-.883 21.51-2.36 57.51 43.357 88.227zm-29.562 41.376c-52.928-39.059-52.363-82.618-52.06-106.02.07-5.387.157-12.092-.846-13.6a.72.72 0 0 0 .079.091l8.54-8.43c4.454 4.512 4.358 11.886 4.226 22.092-.295 22.742-.788 60.806 47.186 96.21zm-43.382 50.864c-45.046-42.21-40.488-96.614-38.039-125.842.6-7.143 1.344-16.034.4-18.094a1.83 1.83 0 0 0 .36.469l8.468-8.5c4.622 4.6 3.911 13.082 2.734 27.13-2.439 29.114-6.522 77.844 34.286 116.083zm-70.64 53.262c-20.069-42.3.4-127.093 10.242-167.845 1.868-7.737 3.344-13.848 3.973-17.358l11.812 2.12c-.693 3.861-2.206 10.124-4.12 18.055-8.772 36.334-29.315 121.422-11.066 159.884zM15.437 550.29a19.338 19.338 0 0 1-6.356-1.018l3.9-11.35c4.11 1.41 11.449-1.379 21.607-5.238 24.223-9.2 64.766-24.606 139.812-14.907l-1.538 11.9C100.8 520.365 62.016 535.1 38.845 543.9c-9.383 3.567-16.815 6.39-23.408 6.39z"/><path d="m32.785 636.483-10.957-4.894c1.221-2.734 2.528-6.347 4.041-10.531 11.616-32.117 35.785-98.945 143.249-98.945v12c-99.043 0-120.459 59.214-131.965 91.026-1.593 4.405-2.969 8.21-4.368 11.344z"/><path d="m117 646.861-12-.311c.855-33.008 9.605-64.477 24.637-88.611 16.074-25.807 37.959-40.607 61.623-41.673l.54 11.988c-40.263 1.814-73.121 53.912-74.8 118.607z"/><path d="m172.731 644.138-12-.04c0-1.729-.393-5.267-.855-9.364-1.609-14.287-4.3-38.2.435-60.847 6.012-28.737 22.1-46.65 47.8-53.242l2.981 11.624c-49.26 12.631-42.274 74.642-39.292 101.122.545 4.833.939 8.324.931 10.747zM480.3 329.221c-11.946 0-159.243-.3-231.214-14.658-4.691-.739-10.606-6.329-14.884-11.083-3.841-4.266-10.685-12.868-13.374-22.545l11.563-3.212c3.218 11.588 15.557 23.26 18.841 25.032l.037.007C321 316.719 468.713 317.2 480.157 317.22c4.184-1.009 27.8-6.95 39.343-15.1l6.92 9.8c-14.565 10.282-43.023 16.866-44.227 17.142l-.657.15H480.3zm-50.214 176.95c-19.214 0-39.888-.144-60.814-.529-48.1-.887-88.058-2.86-118.767-5.865-39.019-3.819-62.954-9.279-73.094-16.682-6-2.594-12.129-5.142-18.6-7.833-27.4-11.4-58.447-24.311-87.054-44.29l6.87-9.838c27.544 19.235 57.958 31.886 84.793 43.048 6.749 2.807 13.124 5.459 19.42 8.187l.714.31.612.481c8.29 6.526 43.385 17.866 185.288 20.483 73.745 1.36 144.532-.3 157.9-.639 29.034-27.069 48.687-42.511 58.415-45.9l3.945 11.333c-3.705 1.29-16.428 8.121-54.477 43.62a20.264 20.264 0 0 1-1.9 1.71l-1.511 1.115-1.878.054c-.588.019-44.001 1.235-99.862 1.235z"/><path d="M528.628 545.412c-67.812 0-293.757-1.539-354.094-21.351l-.23-.081c-53.173-19.88-84.149-28.88-102.657-34.253-14.759-4.287-22.89-6.648-29.851-10.692l6.027-10.376c5.692 3.306 13.321 5.522 27.171 9.544 18.656 5.418 49.873 14.484 103.4 34.494 46.529 15.2 209.987 20.664 348.282 20.715 8.828-9.308 49.729-72.327 54.442-80.905l10.517 5.779c-2.008 3.654-15.684 25.207-28.744 44.864-28.083 42.262-30.409 42.262-34.263 42.262zm-22.666-178.007-2.042-.143c-9.08-.633-29.685-1.052-55.771-1.582-71.762-1.458-191.869-3.9-240.657-14.74l-.721-.161-.66-.33c-19.1-9.552-28.024-18.729-40.445-32.708l8.971-7.971c12.641 14.228 19.971 21.417 36.18 29.614 48.095 10.449 166.617 12.857 237.575 14.3 24.468.5 44.142.9 54.294 1.479 18.643-12.547 23.729-18.031 26.5-21.017a21.5 21.5 0 0 1 6.6-5.306l5.475 10.678a10.226 10.226 0 0 0-3.28 2.789c-3.411 3.678-9.121 9.833-30.318 23.964z"/><path d="M428.15 404.672c-70.09 0-146.81-6.3-229.166-18.84l-.953-.146-.86-.436c-5.271-2.676-10.325-4.972-15.212-7.194-15.053-6.84-29.271-13.3-46.528-29.063l8.092-8.861c15.857 14.482 28.621 20.283 43.4 27 4.739 2.154 9.633 4.377 14.813 6.98 115.429 17.525 219.581 22.673 309.639 15.306 9.117-5.583 18-15.526 24.556-22.864 6.176-6.914 9.291-10.3 12.554-11.729l4.81 10.994c.036-.016.075-.033.114-.055-1.385.788-5.347 5.222-8.529 8.785-7.37 8.249-17.463 19.546-28.66 25.945l-1.154.659-1.325.111q-40.916 3.41-85.591 3.408z"/><path d="M380.467 436.092c-48.1 0-110.034-3.664-188.755-15.441l-.658-.1-.62-.24c-30.594-11.843-57.658-27.012-78.266-43.866l7.6-9.289c19.5 15.949 45.211 30.369 74.383 41.724 165.091 24.632 255.3 13.225 298.675 7.738 9.8-1.239 17-2.15 22.141-2.229 10.949-2.707 24.358-15.308 33.282-23.694 5.966-5.608 8.955-8.354 11.655-9.494l4.665 11.057c.037-.016.078-.033.12-.056-1.222.658-5.1 4.306-8.223 7.237-10.042 9.438-25.218 23.7-39.515 26.807l-.63.137h-.645c-4.422 0-11.52.9-21.344 2.141a838.306 838.306 0 0 1-113.865 7.568z"/><path d="M361.083 471.6q-24.753 0-48.2-.787c-61.95-2.083-101.557-7.761-123.875-12.156l-.634-.125-.592-.257c-28.5-12.348-68.562-31.624-97.609-53.33l7.183-9.613c27.919 20.863 66.735 39.572 94.6 51.675 28.665 5.58 134.086 21.736 328.053 5.521 3.5-1.983 15.548-12.152 24.441-19.66 16.461-13.9 24.063-20.135 27.777-21.527l4.213 11.236.108-.044c-2.8 1.307-15.261 11.824-24.357 19.5-22.426 18.934-26.681 22.071-30.354 22.38-56.929 4.787-110.794 7.187-160.754 7.187zm176.01 112.9c-198.749-4.742-296.638-10.959-337.876-21.455l2.96-11.63c40.3 10.259 137.418 16.369 335.2 21.088zm-49.261 32.924c-55.027 0-144.522-4.778-291.515-12.912l.663-11.982c205.539 11.37 298.196 16.17 340.579 10.57l1.572 11.9c-12.494 1.646-29.09 2.424-51.299 2.424zm56.633 35.614c-24.688-3.093-322.237-1.839-375.657-1.159l-.153-12c53.553-.681 352.145-1.9 377.3 1.251zm-12.148 31.773c-7.305-3.275-76.359-7.094-175.179-7.554-110.972-.517-169.111 3.51-176.181 7.47l-5.864-10.47c15.835-8.868 133.616-9.243 183.523-8.993 42.906.215 84.411 1.117 116.868 2.539 55.044 2.41 60.237 5.212 62.454 6.408l-5.7 10.561z"/></g><path d="M601.686 439.33c-11.747 19.406-30.972 51.28-33.3 76.532.293-24.725 10.4-45.992 19.35-63.088zm-88.442-44.046c12.146 73.684 26.9 204.056 32.568 246.971 0 0-2.609-.01-9.086-37.256-3.674-21.121-15.385-135.221-23.482-209.715zm-306.596-49.936c2.177-1.086-28.623 177.061-28.623 177.061 11.336 0 31.579 2.429 35.627 3.238l-1.619 1.62c-24.568-2.217-41.295-2.429-81.781-1.62 16.541-1.6 32.389-2.429 42.1-3.238.005 0 26.425-140.619 34.296-177.061zM190.98 694.876c40.486-25.91 274.491 17.814 335.219-1.619 0 0-4.438 7.279-42.1 10.526-46.967 4.049-260.73-23.483-293.119-8.907z" fill="#b0ab98"/><path d="M209.6 526.457c-21.863 9.717-30.769 84.21-.143 105.6a475.668 475.668 0 0 1-65.907 13.823c13.1-1.147 30.076.826 73.341-10.922 32.388-7.287 24.291-119.027-7.291-108.501z" fill="#b0ab98"/><path d="M437.562 276.858c-1.791-3.359-23.045-4.163-25.154-8.9-2.242-5.038.242-37.513.242-37.513l-62.44-13.069c2.276 4.489 2.19 31.681 1.694 46.709-.311 9.415-22.562 5.65-24.132 9.863-5.507 14.775 119.359 20.852 109.79 2.91z" fill="#fdb291"/><path d="M412.166 267.23s-33.034-3.558-59.979-23.064c-.213-13.267-.552-22.047-1.977-26.791l63.166 12.825c-3.117 15.266-1.21 37.03-1.21 37.03z" fill="#f58f73"/><path d="M286.075 150.82c-3.946 10.712 7.012 29.438 18.878 33.4 8.425 2.812 16.556-1.175 15.973-1.936 4.117 8.388 11.581 25.4 30.81 38.33 8.57 5.764 27.914 18.435 54.5 15.41 5.078-.577 33.652-8.006 50.218-31.475 23.234-32.914 4.7-68.1 5.324-71.153 3.389-16.457 6.293-29.042-4.84-48.887-27.105-54.209-72.192-45.309-75.32-45.251-5.5.1-57.249 1.886-74.422 42.473-12.55 29.662 10.281 65.792 6.469 62.313-9.8-8.944-22.891-4.688-27.59 6.776z" fill="#fdb291"/><path d="M411.55 162.627c-2.178-3.821 9.566-17.492 16.162-15.41a6.474 6.474 0 0 1 4.135 5.262c.306 3.173-2.472 5.628-3.759 6.765-5.48 4.844-14.962 6.147-16.538 3.383z" fill="#f69379"/><path d="M316.462 149.683c20.672-33.452 58.75-59.624 135.05-75.035-1.519.307-19.76-47.394-83.813-35.968-38.939 8.043-64.307 31.32-64.307 63.274 0 25.183 13.07 47.729 13.07 47.729z" fill="#f58f73"/><circle cx="374.152" cy="158.407" fill="url(#e)" r="20.86"/><path d="M442.188 157.84c-1.707-8.993 3.192-17.477 10.944-18.949 8.123-.959 10.964 2.992 10.964 2.992a98.375 98.375 0 0 1 4.1 22.369s-2.378 7.073-8.88 7.206c-7.323 1.364-15.573-5.434-17.128-13.618z" fill="url(#f)"/><circle cx="446.881" cy="125.769" fill="#020202" r="7.705"/><path d="M393.457 125.815a7.7 7.7 0 1 1-7.7-7.7 7.7 7.7 0 0 1 7.7 7.7z" fill="#020202"/><path d="M392.563 171.15c-.955.159 15.113 17.948 27.112 18.061 12.434.117 26.183-17.355 28.278-20.116a.217.217 0 0 0-.179-.349c-5.082.185-52.307 1.92-55.211 2.404z" fill="#fff"/><path d="M392.542 171.115c1.306-4.949 53.815-4.69 55.55-2.183" fill="#f88c79"/><path d="M456.436 101.413c1.945 1.14 3.137 3.431-.721 3.129-9.807-.766-21.687-1.29-22.94-2.121-2.208-1.462.4-4.692 2.694-5.428 5.566-1.793 16.841 2.001 20.967 4.42z" fill="#ba7f63"/><path d="M480.339 56.468c7.044-13.064.525-22.059-18.042-27.438-5.7-11.886-18.2-14.206-34.955-10.524-10.148-13.951-27.072-17.333-51.494-9.021C356.679-8.932 329.738.676 318.341 27.9c-18.567 6.206-25.163 15.748-24.055 27.439-17.968-.371-25.231 11.3-22.176 34.579-16.538 3.007-13.155 22.928-9.021 24.431-1.231 7.376 1.2 12.346 9.4 13.531-7.675 14.41-3.362 23.9 12.779 25.935.752-7.141 9.888-18.714 23.259-12.313a15.868 15.868 0 0 1 7.592 7.8c5.757 12.77 7.487 19.545 7.487 19.545s12.373-32.241.376-42.849c9.626-5.515 13.641-18.117 14.659-35.331 14.9 4.2 26.466 1.21 33.452-11.652 10.781 5.6 22.753 2.738 36.083-9.772 8.707 22.483 21.509 31.38 40.217 20.672 19.656 18.213 52.243-1.498 31.946-33.447zM267.6 112.848s-4.819-7.3-1.879-13.155c1.651-3.289 6.766-5.638 6.766-5.638-5.171 5.317-6.306 11.713-4.887 18.793zm6.39 27.438a11.455 11.455 0 0 1 3.759-12.4c-.775 8.638.783 16.241 4.134 19.545-.001-.004-6.343-2.518-7.894-7.145zM335.255 13.62A19.515 19.515 0 0 1 353.3 3.471c6.9.449 13.531 7.518 13.531 7.518-5.175-3.933-21.854-6.967-31.576 2.631zM454.4 35.044c.039-6.557-6.806-10.335-20.672-11.276 0 0 21.7-1.023 23.3 5.638.509 2.085-2.628 5.638-2.628 5.638zm17.29 54.876c8.7-5.531 11.293-14.132 5.262-27.062 0 0 7.265 7.747 5.638 15.41-1.557 7.354-10.896 11.652-10.896 11.652zm-161.618 95.094c3.087 8.43 9.367 13.506 18.793 11.276a157.115 157.115 0 0 1-7.893-14.283c-3.029 2.623-6.823 3.193-10.9 3.007z" fill="#ba7f63"/><path d="M361.578 106.169c-1.629 1.56-2.259 4.064 1.425 2.878 9.364-3.015 20.8-6.275 21.827-7.373 1.809-1.934-1.479-4.472-3.878-4.658-5.83-.452-15.921 5.846-19.374 9.153z" fill="#ba7f63"/><path d="M706.561 352.937s19.119-52.518 35.092-68.007c36.577-35.468 63.288-38.722 73.089-38.722.968 0 13.553-.968 14.037 6.776.208 3.329-5.082 9.923-5.082 9.923s7.032 3.733 8.228 7.744c2 6.714-13.068 20.814-13.068 20.814s12.049-.271 12.826 7.5c.484 4.841-10.89 14.279-10.89 14.279s7.665 1.76 8.47 5.083c3.872 15.973-58.656 50.477-61.23 46.709l-22.266 35.818z" fill="#fdb291"/><path d="M713.448 335.515c1.785 10.34 9.374 26.9 34.233 62.264l-1.914 3.077-39.206-47.919q3.144-8.637 6.887-17.422zm109.039-72.366c-8.229-.968-12.1-1.452-14.037-5.324-2.42-4.841 2.42-9.681 7.26-9.681-10.648 0-21.345 4.022-30.79 7.879-5.489 2.241-12.718 4.809-21.1 10.2-7.969 5.126-21 17.581-21 17.581a52.623 52.623 0 0 0 5.311-1.118 78.661 78.661 0 0 0 23.049-9.859c18.354-11.044 25.9-19.12 26.622-18.878 3.872 1.291 2.593 15.991-4.84 25.654-4.841 6.292-13.977 10.1-20.33 16.457-9.68 9.681.484 26.622-16.941 44.531 7.176-7.375 15.489-17.909 24.2-30.01 8.1-11.255 28.8-3.5 46.634-27.665 0 0-23.4 12.66-31.145 8.788a7.58 7.58 0 0 1-2.4-4.132c-1.324-7.372 14.986-16.679 29.507-24.423zm-1.694 50.097c-1.788 2.56-20.611 8.242-37.029 13.311 17.187-3.877 36.837-6.144 40.486-12.21a23.914 23.914 0 0 0-3.457-1.101zm-5.063 25.089 2.686-6.249a1.241 1.241 0 0 0-1.535-1.678c-10.882 3.654-22.637 5.714-30.7 3.894 5.572 4.883 15.474 3.872 23.234 1.936 1.383 3.168-1.841 8.383-1.841 8.383 3.126-2.291 5.994-4.459 8.156-6.286z" fill="#f58f73"/><path d="m826.526 207.646-49.008 162.841-9.215-3.746 48.556-161.858 9.311-12.65z"/><path d="M826.6 191.27v15.489a13.294 13.294 0 0 1-9.681-1.936z" fill="#9d9d9d"/><path d="m440.34 642.069-162.04-7.6a7.94 7.94 0 0 1-7.422-9.449l43.39-222.932a7.941 7.941 0 0 1 8.241-6.411l168.3 9.469a7.942 7.942 0 0 1 7.3 9.669L448.46 635.877a7.941 7.941 0 0 1-8.12 6.192z"/><path d="M210.934 525.758c7.114-1.793 33.81.928 33.81.928s2.456-22.686 14.71-36.475c16.175-18.2 97.775-12.321 98.848-5.167 2.7 17.972-62 15.131-62 15.131s56.551 12.593 65.262 16.221c14.08 5.864 2.7 18.013-10.994 15.044 12.923 7.972 2.121 17.674-14.729 14.934 11.064 2.74 7.189 14.828-8.087 14.378-12.543-.369-42.909 0-42.909 0l-9.173 39.659s-24.3 29.759-64.952 15.378c-35.645-12.609-19.184-85.141.214-90.031z" fill="#fdb291"/><path d="M277.507 592.456c-23.329 10.921-41.961-17.033-34.228-61.808-17.134 26.841-22.668 56.5-18.072 88.61 21.525 2.223 38.28-4.893 50.46-18.847-.297 1.613 1.84-7.955 1.84-7.955zm59.433-45.797s-52.087-13.9-52.071-12.087c.038 4.465 56.12 14.713 56.12 14.713a8.939 8.939 0 0 0-4.049-2.626zm21.426-15.09s-74.977-20.143-73.5-17.292c2.566 4.946 65.7 17.163 65.7 17.163 1.414.26 4.946.946 7.8.129zm-75.323-32.821c-2.314-1.979 70.895-5.867 70.895-5.867s-10.014 9.236-55.83 7.577c-4.608-.167-14.279-1.038-15.065-1.71zm1.797 62.004s-8.477-.78-9.6 1.237c-.829 1.49 8.551 2.887 8.551 2.887z" fill="#f58f73"/></svg></g></svg>